<?xml version="1.0" standalone="no"?>
<!DOCTYPE svg PUBLIC "-//W3C//DTD SVG 20010904//EN"
 "http://www.w3.org/TR/2001/REC-SVG-20010904/DTD/svg10.dtd">
<svg version="1.0" xmlns="http://www.w3.org/2000/svg"
 width="1239.000000pt" height="1239.000000pt" viewBox="0 0 1239.000000 1239.000000"
 preserveAspectRatio="xMidYMid meet">
<metadata>
Created by potrace 1.11, written by Peter Selinger 2001-2013
</metadata>
<g transform="translate(0.000000,1239.000000) scale(0.100000,-0.100000)"
fill="#000000" stroke="none">
<path d="M8499 7836 c-2 -2 -60 -7 -129 -11 -69 -4 -141 -8 -160 -10 -19 -2
-87 -6 -150 -10 -126 -7 -212 -14 -216 -18 -5 -5 -12 -64 -13 -108 -1 -52 -2
-53 -116 -64 -27 -3 -59 -7 -70 -9 -11 -2 -45 -7 -75 -10 -101 -13 -108 -15
-115 -44 -38 -176 -54 -556 -26 -626 12 -30 18 -30 121 -11 66 12 266 25 287
18 8 -3 11 -75 12 -254 l2 -249 -63 -1 c-35 -1 -90 -2 -123 -4 -33 -1 -88 -3
-121 -4 l-61 -1 3 -52 c4 -84 21 -432 29 -591 2 -53 7 -102 10 -108 4 -5 16
-7 28 -3 12 4 77 14 144 24 93 12 123 13 123 4 0 -6 8 -14 18 -16 9 -2 154 -4
322 -3 l305 0 0 22 c0 30 6 34 66 39 195 16 395 144 535 340 87 122 165 303
195 454 14 75 19 288 8 380 -39 315 -216 562 -508 709 -46 24 -111 59 -145 79
-54 33 -62 42 -76 87 -13 44 -29 62 -41 51z m88 -986 c34 -49 46 -106 41 -187
-6 -89 -41 -153 -104 -189 l-41 -24 3 167 c4 139 10 287 13 301 3 12 70 -40
88 -68z"/>
<path d="M2855 7798 c-10 -42 -166 -781 -183 -866 -12 -62 -20 -82 -31 -80 -8
2 -97 175 -208 407 -106 222 -194 406 -196 408 -2 1 -62 -37 -133 -87 -70 -49
-131 -90 -135 -90 -4 0 -33 32 -64 70 -32 39 -62 69 -67 68 -9 -3 -27 -36
-202 -373 -49 -93 -97 -183 -106 -200 -10 -16 -59 -111 -110 -209 -51 -99
-112 -215 -136 -259 l-42 -80 -32 64 c-18 35 -45 87 -60 114 -15 28 -47 88
-72 135 -71 134 -345 653 -412 780 -34 63 -66 124 -73 135 -11 19 -14 18 -75
-25 -35 -25 -164 -115 -286 -200 -122 -85 -221 -158 -222 -163 0 -7 878 -1767
887 -1777 4 -5 111 31 467 154 165 57 212 77 219 94 13 28 22 28 59 -3 16 -14
33 -25 37 -25 6 0 241 352 328 492 57 92 44 104 185 -171 l127 -248 -14 -48
c-8 -26 -15 -52 -15 -56 0 -5 26 -20 58 -35 31 -15 118 -55 192 -89 74 -34
200 -93 279 -130 79 -37 147 -63 151 -58 4 4 49 161 100 348 51 187 180 660
286 1050 107 391 199 724 203 741 l9 32 -197 56 c-108 32 -259 75 -336 97 -77
22 -148 42 -157 45 -12 4 -19 -2 -23 -18z"/>
<path d="M9519 7572 c-2 -81 -17 -429 -24 -562 -3 -41 -7 -145 -11 -230 -3
-85 -7 -189 -9 -230 -2 -41 -6 -145 -9 -230 -4 -85 -8 -184 -11 -220 -2 -36
-7 -140 -10 -233 l-6 -167 28 4 c15 3 55 8 88 11 33 4 71 8 85 10 14 2 54 6
90 10 36 4 76 8 90 10 47 7 155 18 178 19 13 0 22 6 23 16 1 20 1 1695 0 1741
l-1 35 -122 13 c-68 7 -134 14 -148 16 -24 3 -97 11 -187 20 l-43 4 -1 -37z"/>
<path d="M11543 7505 c-62 -55 -88 -73 -105 -70 -13 2 -126 7 -253 10 -126 3
-275 7 -330 10 -55 2 -198 6 -317 10 l-218 6 -1 -23 c0 -13 -2 -36 -3 -53 -2
-16 -6 -70 -10 -119 -5 -50 -9 -97 -11 -105 -1 -9 -6 -52 -9 -96 -4 -44 -9
-104 -12 -132 -3 -29 -2 -54 3 -54 28 -5 97 -8 343 -14 151 -4 314 -8 363 -9
l87 -1 -267 -266 -268 -266 -45 -2 c-25 0 -55 -3 -68 -5 -12 -3 -59 -8 -105
-12 -45 -3 -84 -8 -86 -10 -4 -4 -3 -104 5 -299 3 -71 7 -160 8 -197 1 -37 4
-70 7 -72 2 -3 64 -7 137 -10 l133 -6 40 -37 c22 -21 64 -60 92 -86 l52 -48
94 97 c52 53 104 99 115 104 12 4 57 11 101 14 44 4 87 9 95 11 8 2 47 6 85
10 39 3 84 8 100 10 55 7 119 14 185 20 36 3 76 8 90 10 14 3 54 7 90 10 36 3
83 8 105 10 22 3 63 7 90 10 86 9 125 17 126 23 0 4 2 25 4 47 4 51 13 139 22
218 9 80 9 187 0 210 -6 17 -18 18 -149 13 -79 -4 -210 -9 -292 -11 -82 -3
-153 -8 -157 -11 -5 -3 -9 -1 -9 3 0 9 100 114 346 365 l155 156 50 0 c28 1
53 3 55 5 7 7 11 35 18 122 7 75 10 105 21 208 2 23 7 74 10 112 4 39 8 82 11
98 4 23 1 27 -18 27 -13 1 -87 1 -165 0 l-141 -1 -57 71 c-32 38 -58 70 -59
70 0 0 -38 -34 -83 -75z"/>
<path d="M4325 7510 c-298 -68 -494 -245 -594 -538 -53 -155 -62 -394 -22
-551 79 -303 309 -541 622 -640 76 -24 198 -40 294 -37 81 2 112 7 161 28 208
87 401 304 514 577 58 141 75 231 73 386 -4 359 -235 652 -600 761 -118 36
-326 42 -448 14z m312 -645 c46 -23 108 -89 134 -143 17 -36 23 -66 23 -127 1
-70 -2 -86 -27 -127 -46 -80 -143 -132 -265 -145 -241 -25 -327 269 -141 481
57 65 110 89 184 82 33 -3 74 -12 92 -21z"/>
<path d="M6180 7511 c-400 -88 -645 -417 -643 -866 3 -448 296 -793 758 -890
17 -4 80 -8 140 -11 94 -3 119 0 176 19 217 74 419 291 541 585 140 335 85
689 -143 922 -109 111 -244 190 -394 230 -116 31 -320 36 -435 11z m323 -654
c88 -52 138 -135 145 -245 8 -118 -37 -196 -145 -250 -83 -43 -217 -51 -281
-18 -69 36 -113 136 -106 241 6 105 95 242 185 288 50 26 144 18 202 -16z"/>
<path d="M2 5346 l2 -33 6190 1 6189 1 3 33 2 32 -6194 0 -6195 0 3 -34z"/>
<path d="M6227 5078 c-58 -15 -140 -100 -157 -163 -19 -66 -15 -138 11 -192
26 -54 95 -116 147 -131 55 -17 136 -15 180 4 36 15 37 15 62 -13 24 -26 80
-45 80 -26 0 4 -14 25 -30 47 -29 38 -29 63 0 81 18 11 41 78 46 130 16 184
-151 313 -339 263z m165 -57 c54 -23 93 -65 111 -116 22 -63 10 -143 -27 -189
l-23 -30 -39 51 c-40 52 -55 62 -86 55 -15 -4 -9 -15 32 -68 28 -35 50 -65 50
-68 0 -12 -64 -27 -110 -25 -71 4 -136 46 -167 109 -85 173 84 357 259 281z"/>
<path d="M6666 5071 c-6 -12 1 -356 8 -387 8 -36 48 -78 89 -93 59 -23 140 -9
177 30 42 44 45 59 48 262 l4 197 -26 0 c-23 0 -26 -4 -27 -37 0 -21 -1 -105
-2 -188 -3 -163 -8 -184 -58 -214 -25 -16 -37 -17 -72 -8 -85 20 -90 37 -90
278 l0 167 -24 0 c-13 0 -25 -3 -27 -7z"/>
<path d="M7247 4983 c-88 -187 -169 -358 -178 -375 -8 -15 -5 -18 21 -18 28 0
33 5 67 80 l36 80 104 0 103 0 40 -80 c34 -68 44 -80 65 -80 14 0 25 2 25 4 0
5 -30 71 -110 241 -23 50 -58 125 -78 168 -20 42 -39 77 -42 77 -4 0 -28 -44
-53 -97z m94 -101 l36 -77 -39 -3 c-21 -2 -56 -2 -77 0 l-39 3 35 78 c20 42
39 77 42 77 3 0 22 -35 42 -78z"/>
<path d="M7609 5068 c-1 -7 -2 -118 -3 -245 l-1 -233 117 0 c84 0 118 3 121
13 11 31 -5 37 -94 37 -64 0 -89 3 -90 13 0 6 -1 104 -2 217 -2 204 -2 205
-24 208 -14 2 -24 -2 -24 -10z"/>
<path d="M7910 4834 l0 -245 27 3 26 3 0 220 c-1 121 -2 230 -2 243 -1 17 -7
22 -26 22 l-25 0 0 -246z"/>
<path d="M8022 5054 c2 -25 6 -26 71 -26 l37 0 0 -219 0 -219 25 0 c17 0 25 6
26 18 0 9 1 108 1 219 l1 203 41 -1 c63 -2 66 -1 66 26 l0 24 -135 0 -135 -1
2 -24z"/>
<path d="M8327 5073 c-4 -3 -1 -13 5 -21 7 -8 17 -23 23 -33 5 -10 35 -58 65
-106 l54 -88 1 -117 0 -118 25 0 25 0 1 118 0 117 56 90 c30 50 64 106 76 126
l22 36 -30 1 c-27 1 -34 -8 -86 -94 -31 -52 -59 -94 -63 -94 -3 0 -33 43 -65
95 -45 73 -64 95 -81 95 -12 0 -25 -3 -28 -7z"/>
<path d="M8942 4834 l1 -245 26 3 26 3 -1 108 c0 69 3 107 10 108 6 1 33 3 61
5 81 4 113 13 144 40 40 34 52 102 25 151 -28 54 -63 67 -186 69 l-106 2 0
-244z m231 168 c11 -11 20 -31 21 -44 3 -33 -20 -75 -45 -83 -38 -12 -138 -13
-147 -1 -6 8 -9 143 -3 153 0 1 35 1 77 -1 60 -3 81 -8 97 -24z"/>
<path d="M9347 5073 c-3 -5 -4 -115 -4 -245 l0 -238 119 0 118 0 0 25 c0 24
-2 24 -92 27 l-93 3 -1 205 c-1 113 -2 211 -3 218 -1 13 -37 17 -44 5z"/>
<path d="M9812 5018 c-16 -35 -49 -103 -72 -152 -74 -159 -122 -261 -127 -268
-2 -5 10 -8 27 -8 28 0 33 5 67 80 l36 80 104 0 103 0 38 -77 c32 -66 42 -78
65 -81 15 -2 27 -1 27 2 0 3 -23 54 -51 113 -66 139 -130 276 -154 331 -10 23
-22 42 -26 42 -4 0 -20 -28 -37 -62z m77 -135 l41 -83 -80 0 -80 0 14 33 c29
68 61 136 62 134 1 -1 20 -39 43 -84z"/>
<path d="M10120 5076 c0 -6 107 -182 132 -219 17 -24 20 -44 19 -148 l0 -120
26 3 27 3 -1 114 0 115 74 120 c40 66 73 124 73 129 0 4 -12 7 -27 5 -23 -2
-37 -19 -83 -95 -30 -51 -59 -91 -64 -90 -6 2 -30 37 -55 79 -60 98 -69 108
-97 108 -13 0 -24 -2 -24 -4z"/>
<path d="M10696 5073 c-3 -4 -6 -15 -6 -25 0 -18 9 -21 78 -20 l32 0 0 -219 0
-219 25 0 c29 0 26 -24 27 258 0 168 0 172 21 177 12 3 37 4 55 2 29 -4 32 -2
32 23 l0 28 -129 0 c-71 0 -132 -2 -135 -5z"/>
<path d="M11020 4835 l0 -245 25 0 c17 0 25 6 26 18 0 21 0 359 0 425 -1 43
-3 47 -26 47 l-25 0 0 -245z"/>
<path d="M11229 5079 c-3 -21 -9 -56 -18 -126 -7 -45 -14 -90 -16 -101 -2 -10
-6 -43 -10 -73 -3 -30 -10 -78 -15 -108 -14 -77 -13 -81 15 -81 19 0 25 6 26
23 2 34 5 60 12 98 4 19 9 54 12 79 3 25 7 54 10 65 2 11 4 30 4 43 1 12 4 22
9 22 4 0 43 -75 87 -165 44 -91 84 -164 89 -162 5 2 46 77 92 168 46 90 84
162 84 159 4 -17 10 -51 15 -94 4 -27 8 -56 10 -65 5 -25 19 -134 19 -151 1
-9 13 -16 29 -18 24 -3 28 0 24 15 -3 10 -9 43 -12 73 -4 30 -9 62 -10 71 -2
9 -6 40 -10 69 -4 29 -9 62 -11 74 -2 12 -6 41 -9 66 -12 97 -17 122 -25 113
-9 -8 -129 -247 -169 -336 -12 -26 -24 -47 -26 -47 -3 0 -48 86 -100 191 -89
180 -104 208 -106 198z"/>
<path d="M11806 5073 c-3 -3 -6 -114 -6 -245 l0 -238 140 0 140 0 0 25 0 25
-115 0 -115 0 3 93 2 92 95 2 c52 1 103 2 113 2 11 1 17 9 17 26 l0 25 -114 0
-114 0 -1 73 -1 74 107 -1 c115 -1 134 4 126 33 -4 17 -17 19 -138 20 -72 0
-135 -2 -139 -6z"/>
</g>
</svg>
